HIERARCHY
ROOT Hips
{
	OFFSET	0.00	0.00	0.00
	CHANNELS 6 Xposition Yposition Zposition Zrotation Xrotation Yrotation
	JOINT LeftUpLeg
	{
		OFFSET	 0.126116	-0.014019	-0.065224
		CHANNELS 3 Zrotation Xrotation Yrotation
		JOINT LeftLeg
		{
			OFFSET	 0.000000	 0.000000	 0.569914
			CHANNELS 3 Zrotation Xrotation Yrotation
			JOINT LeftFoot
			{
				OFFSET	 0.000000	 0.000000	 0.544423
				CHANNELS 3 Zrotation Xrotation Yrotation
				JOINT LeftToeBase
				{
					OFFSET	 0.000000	 0.000000	 0.207117
					CHANNELS 3 Zrotation Xrotation Yrotation
					End Site
					{
						OFFSET	 0.000000	 0.000000	 0.207117
					}
				}
			}
		}
	}
	JOINT RightUpLeg
	{
		OFFSET	-0.124023	-0.008373	-0.065224
		CHANNELS 3 Zrotation Xrotation Yrotation
		JOINT RightLeg
		{
			OFFSET	 0.000000	 0.000000	 0.570047
			CHANNELS 3 Zrotation Xrotation Yrotation
			JOINT RightFoot
			{
				OFFSET	 0.000000	 0.000000	 0.544354
				CHANNELS 3 Zrotation Xrotation Yrotation
				JOINT RightToeBase
				{
					OFFSET	 0.000000	 0.000000	 0.207540
					CHANNELS 3 Zrotation Xrotation Yrotation
					End Site
					{
						OFFSET	 0.000000	 0.000000	 0.207540
					}
				}
			}
		}
	}
	JOINT Spine
	{
		OFFSET	 0.000184	-0.007763	 0.117403
		CHANNELS 3 Zrotation Xrotation Yrotation
		JOINT Spine1
		{
			OFFSET	 0.000000	 0.000000	 0.137269
			CHANNELS 3 Zrotation Xrotation Yrotation
			JOINT Spine2
			{
				OFFSET	 0.000000	 0.000000	 0.156879
				CHANNELS 3 Zrotation Xrotation Yrotation
				JOINT LeftShoulder
				{
					OFFSET	 0.080501	-0.002496	 0.160144
					CHANNELS 3 Zrotation Xrotation Yrotation
					JOINT LeftArm
					{
						OFFSET	 0.000000	 0.000000	 0.164363
						CHANNELS 3 Zrotation Xrotation Yrotation
						JOINT LeftForeArm
						{
							OFFSET	 0.000000	 0.000000	 0.364576
							CHANNELS 3 Zrotation Xrotation Yrotation
							JOINT LeftHand
							{
								OFFSET	 0.000000	 0.000000	 0.360812
								CHANNELS 3 Zrotation Xrotation Yrotation
								JOINT LeftHandIndex1
								{
									OFFSET	 0.000000	 0.000000	 0.086006
									CHANNELS 3 Zrotation Xrotation Yrotation
									JOINT LeftHandIndex2
									{
										OFFSET	 0.000000	 0.000000	 0.047236
										CHANNELS 3 Zrotation Xrotation Yrotation
										JOINT LeftHandIndex3
										{
											OFFSET	-0.004284	-0.000551	 0.038166
											CHANNELS 3 Zrotation Xrotation Yrotation
											End Site
											{
												OFFSET	-0.004284	-0.000551	 0.038166
											}
										}
									}
								}
							}
						}
					}
				}
				JOINT Neck
				{
					OFFSET	 0.000000	 0.000000	 0.176489
					CHANNELS 3 Zrotation Xrotation Yrotation
					JOINT Head
					{
						OFFSET	 0.000000	-0.001747	 0.077940
						CHANNELS 3 Zrotation Xrotation Yrotation
						End Site
						{
							OFFSET	 0.000000	-0.001747	 0.077940
						}
					}
				}
				JOINT RightShoulder
				{
					OFFSET	-0.080363	 0.000306	 0.159706
					CHANNELS 3 Zrotation Xrotation Yrotation
					JOINT RightArm
					{
						OFFSET	 0.000000	 0.000000	 0.164196
						CHANNELS 3 Zrotation Xrotation Yrotation
						JOINT RightForeArm
						{
							OFFSET	 0.000000	 0.000000	 0.365611
							CHANNELS 3 Zrotation Xrotation Yrotation
							JOINT RightHand
							{
								OFFSET	 0.000000	 0.000000	 0.360648
								CHANNELS 3 Zrotation Xrotation Yrotation
								JOINT RightHandIndex1
								{
									OFFSET	 0.000000	 0.000000	 0.069977
									CHANNELS 3 Zrotation Xrotation Yrotation
									JOINT RightHandIndex2
									{
										OFFSET	 0.000000	 0.000000	 0.052305
										CHANNELS 3 Zrotation Xrotation Yrotation
										JOINT RightHandIndex3
										{
											OFFSET	 0.009002	-0.000782	 0.042196
											CHANNELS 3 Zrotation Xrotation Yrotation
											End Site
											{
												OFFSET	 0.009002	-0.000782	 0.042196
											}
										}
									}
								}
							}
						}
					}
				}
			}
		}
	}
}
MOTION
Frames:    5
Frame Time: 0.03333334
-0.000009	 0.044445	 1.275629	-0.095833	 2.392487	 0.530204	 6.317849	-5.864297	 177.899300	 2.295585	-13.143410	 0.617147	-0.537941	 70.840040	 0.389523	-2.385833	 28.452750	 0.000004	 1.259939	-5.361403	-178.229400	-0.795024	-11.619230	 0.877991	 5.521074	 69.818480	 0.786683	 2.384659	 28.388700	-0.000001	-8.214320	 6.590984	 1.091818	-2.492906	-3.260055	-0.003361	 7.816414	 6.452883	-0.558752	-91.187990	 69.915510	-177.870200	-8.904600	 3.930771	-27.810920	 23.992680	-0.066302	-1.646930	-13.093740	-32.601590	-6.180196	-2.027600	 6.559038	 9.033609	-5.188889	 0.308190	 3.541030	-5.234859	 0.342567	 0.430617	 4.331916	 17.453570	-6.581333	 2.856405	-12.987920	 2.147249	 89.040020	 68.858310	 177.418000	 8.811047	 9.605021	 2.718027	-22.267900	-11.284350	 38.199360	 11.111160	-32.586560	 8.658174	 1.803333	 3.979147	-15.098590	 4.898592	 3.004813	-9.310344	 5.224449	 0.395017	 2.014677
-0.000187	 0.046863	 1.275578	-0.083473	 2.669854	 0.558388	 6.355953	-6.381755	 177.888900	 2.234522	-13.296100	 0.610116	-0.333063	 70.667760	 0.231481	-2.385833	 28.452750	 0.000004	 1.170921	-5.841041	-178.258900	-0.782037	-11.711170	 0.887492	 5.388839	 69.661990	 0.920045	 2.384659	 28.388700	-0.000001	-10.004010	 6.871591	 1.137560	-2.549956	-3.593603	 0.036610	 7.924463	 7.284508	-0.680192	-91.112290	 69.398390	-177.695900	-8.100987	 4.680317	-29.373820	 22.576170	 0.009509	-2.290345	-14.211350	-35.550640	-7.520129	-2.027600	 6.559038	 9.033609	-5.188889	 0.308190	 3.541030	-5.234859	 0.342567	 0.430617	 4.489438	 18.804650	-7.008672	 3.009514	-13.910710	 2.168723	 88.936720	 68.147590	 177.208700	 8.081230	 10.617410	 3.466316	-21.341600	-10.597740	 39.227680	 12.135690	-35.245120	 9.609040	 1.803333	 3.979147	-15.098590	 4.898592	 3.004813	-9.310344	 5.224449	 0.395017	 2.014677
-0.000509	 0.051161	 1.275226	-0.058981	 3.141402	 0.613383	 6.399304	-7.375288	 177.863100	 2.167244	-13.765770	 0.615214	-0.014708	 70.505200	-0.041854	-2.385833	 28.452750	 0.000004	 1.028131	-6.765221	-178.328300	-0.762000	-12.068590	 0.918389	 5.197387	 69.490910	 1.118231	 2.384659	 28.388700	-0.000001	-12.639030	 7.298722	 1.202205	-2.620413	-3.826557	 0.134622	 8.062424	 8.394324	-0.866050	-91.000470	 68.651410	-177.454600	-6.806849	 6.070307	-32.040680	 20.433000	 0.174144	-3.249124	-16.252570	-39.770220	-10.040330	-2.027600	 6.559038	 9.033609	-5.188889	 0.308190	 3.541030	-5.234859	 0.342567	 0.430617	 4.694436	 20.814980	-7.641892	 3.274788	-15.315790	 2.217582	 88.773550	 67.045460	 176.902700	 6.809806	 12.503440	 5.039039	-20.063200	-9.383954	 40.235250	 13.828520	-39.055860	 11.393370	 1.803333	 3.979147	-15.098590	 4.898592	 3.004813	-9.310344	 5.224449	 0.395017	 2.014677
-0.000993	 0.056452	 1.274595	-0.011524	 3.782926	 0.689082	 6.330726	-8.776412	 177.817200	 2.111880	-14.582210	 0.654826	 0.304027	 70.519330	-0.401057	-2.385833	 28.452750	 0.000004	 0.850192	-8.068205	-178.440900	-0.748938	-12.716370	 0.969777	 4.945639	 69.391360	 1.400296	 2.384659	 28.388700	-0.000001	-15.213790	 7.720795	 1.251916	-2.625075	-3.701176	 0.268318	 8.069646	 9.240085	-1.030833	-90.914970	 68.052760	-177.287800	-5.617962	 7.739581	-34.919070	 18.142070	 0.409313	-4.230939	-19.136470	-43.904030	-13.487870	-2.027600	 6.559038	 9.033609	-5.188889	 0.308190	 3.541030	-5.234859	 0.342567	 0.430617	 4.720441	 22.644870	-8.169945	 3.601479	-16.716880	 2.321737	 88.608990	 65.888460	 176.629700	 5.286276	 14.461670	 7.035477	-18.687810	-7.923556	 40.970800	 15.919620	-42.763560	 13.809910	 1.803333	 3.979147	-15.098590	 4.898592	 3.004813	-9.310344	 5.224449	 0.395017	 2.014677
-0.001489	 0.061701	 1.274045	 0.031727	 4.406780	 0.745407	 6.392603	-10.158310	 177.813400	 2.189521	-15.395900	 0.695862	 0.637992	 70.530860	-0.783516	-2.385833	 28.452750	 0.000004	 0.686079	-9.376354	-178.541100	-0.735693	-13.401600	 1.024179	 4.719594	 69.304630	 1.656782	 2.384659	 28.388700	-0.000001	-17.517220	 8.153288	 1.346249	-2.588429	-3.050956	 0.390503	 8.071151	 9.809200	-1.151443	-90.830960	 67.479840	-177.130100	-4.792922	 8.963534	-37.715450	 16.030520	 0.683502	-5.128145	-22.229750	-47.154430	-17.239600	-2.027600	 6.559038	 9.033609	-5.188889	 0.308190	 3.541030	-5.234859	 0.342567	 0.430617	 4.762553	 24.397810	-8.673682	 3.929908	-18.052580	 2.434201	 88.446290	 64.781490	 176.372700	 3.935184	 15.801820	 8.998024	-17.395270	-6.647294	 42.137030	 18.027480	-45.715580	 16.391310	 1.803333	 3.979147	-15.098590	 4.898592	 3.004813	-9.310344	 5.224449	 0.395017	 2.014677
